<svg width="465" height="62" viewBox="0 0 465 62" xmlns="http://www.w3.org/2000/svg" xmlns:xlink="http://www.w3.org/1999/xlink"><title>Page 1</title><defs><path id="a" d="M49.278.18H.298v50.773h48.98V.18z"/></defs><g fill="none" fill-rule="evenodd"><g fill="#CA2F2C"><path d="M97.667 47.3c-.16 1.656-.554 3.15-1.182 4.476-.628 1.328-1.425 2.5-2.39 3.52-.97 1.018-2.09 1.896-3.365 2.635-1.277.74-2.642 1.344-4.097 1.813-1.456.468-2.985.813-4.59 1.033-1.605.22-3.215.33-4.83.33-1.494 0-2.98-.086-4.455-.255-1.475-.17-2.9-.408-4.276-.718-1.375-.31-2.676-.7-3.902-1.167-1.226-.47-2.328-1.004-3.304-1.604-.538-1.715-.947-3.476-1.225-5.285-.28-1.806-.538-3.638-.777-5.494v-.18c.04-.2.124-.404.254-.613.13-.21.304-.374.524-.494 1.476.92 2.935 1.617 4.38 2.097 1.446.48 3.055.718 4.83.718.358 0 .857.02 1.495.06.638.04 1.286.03 1.943-.03.658-.06 1.27-.2 1.84-.42.567-.22.952-.578 1.15-1.078-1.056-.558-2.167-1.112-3.333-1.66-1.167-.55-2.308-1.14-3.425-1.768-1.116-.63-2.18-1.314-3.2-2.052-1.016-.74-1.908-1.582-2.675-2.53-.767-.95-1.375-2.022-1.823-3.22-.45-1.198-.673-2.565-.673-4.103 0-1.977.297-3.703.896-5.18.598-1.478 1.41-2.747 2.437-3.804 1.026-1.06 2.227-1.932 3.603-2.62 1.375-.69 2.835-1.228 4.38-1.618 1.545-.39 3.134-.663 4.77-.824 1.634-.158 3.23-.238 4.784-.238 1.634 0 3.15.07 4.545.21 1.395.14 2.695.304 3.903.493 1.205.19 2.33.38 3.378.57 1.047.19 2.048.333 3.005.434.1.02.195.074.286.163.09.09.173.19.254.3.08.11.16.21.24.3.08.09.168.145.268.164.04 0 .06-.01.06-.03 0-.02.02-.03.06-.03.06 1.1.153 2.186.283 3.264.13 1.08.196 2.177.196 3.296 0 .36-.01.73-.03 1.108-.02.38-.075.748-.165 1.108-.09.36-.223.693-.402 1.003-.18.31-.428.565-.748.764l-5.62-.69c-.16 0-.36-.01-.6-.03-.238-.02-.528-.03-.866-.03-.658 0-1.426.045-2.302.135-.878.09-1.71.2-2.497.33-.788.13-1.45.254-1.99.375-.537.12-.806.208-.806.268 0 .6.193 1.128.58 1.588.39.46.854.854 1.392 1.183.538.327 1.082.598 1.63.806.548.21.97.366 1.27.466 1.556.44 3.016 1.053 4.382 1.84 1.364.79 2.546 1.678 3.542 2.667.997.987 1.784 2.03 2.363 3.128.577 1.098.866 2.157.866 3.174 0 .34-.015.65-.046.928-.028.28-.094.62-.193 1.02M109.562 36.1h-6.07c-.52 0-.917-.3-1.197-.9-.28-.6-.482-1.318-.613-2.156-.13-.838-.203-1.707-.224-2.605-.02-.9-.03-1.64-.03-2.217 0-.14.01-.42.03-.84l.06-1.302c.02-.448.04-.853.06-1.21.02-.36.03-.55.03-.57l.24-.24c.358.04.736.06 1.135.06h1.196c1.355 0 2.71-.01 4.066-.03 1.356-.02 2.71-.03 4.066-.03h1.107c.577 0 1.265.005 2.062.014.797.01 1.655.015 2.572.015.916 0 1.798.004 2.646.014.848.01 1.61.015 2.287.015h1.526c.06-.02.17-.04.328-.06l.495-.06c.17-.02.334-.034.493-.046.16-.01.27-.014.33-.014.557 0 1.136.03 1.734.09.598.06 1.205.09 1.824.09.3 0 .832-.01 1.6-.03.766-.02 1.58-.03 2.437-.03.457 0 .9.005 1.33.014.428.01.807.03 1.136.06.328.03.592.076.792.135.2.06.3.13.3.21v10.51c0 .24-.126.5-.375.78-.25.28-.493.448-.732.508-1.237-.28-2.494-.424-3.768-.434-1.277-.01-2.532-.015-3.768-.015-.4 0-.694.228-.883.688-.19.46-.32 1.013-.39 1.66-.07.65-.098 1.33-.088 2.04.01.707.014 1.312.014 1.81 0 .62.01 1.23.03 1.827.02.6.03 1.16.03 1.677 0 .7-.03 1.448-.09 2.247l-.18 2.394c-.06.798-.12 1.578-.18 2.336-.06.76-.09 1.437-.09 2.037 0 1.377-.034 2.416-.104 3.114-.07.7-.22 1.2-.448 1.5-.23.298-.56.468-.987.508-.43.04-1.002.09-1.72.15-1.095 0-2.098-.006-3.005-.015-.907-.01-1.84-.015-2.795-.015-.957 0-2.01-.006-3.154-.015-1.146-.01-2.507-.016-4.082-.016-.178-.24-.328-.62-.448-1.138-.12-.52-.214-1.163-.284-1.932-.07-.77-.12-1.648-.15-2.635-.03-.988-.045-2.072-.045-3.25 0-2.056.02-4.312.06-6.768.04-2.456.062-5.04.062-7.757l-.18-.18zM158.684 31.097c-.04 1.278-.095 2.55-.164 3.82-.07 1.267-.105 2.54-.105 3.817.3 0 .633-.024 1.002-.075.368-.05.738-.12 1.106-.21.37-.09.717-.2 1.047-.33.33-.13.592-.274.793-.434.298-.18.588-.37.867-.57.278-.2.527-.42.747-.658.22-.24.394-.51.523-.81.13-.298.194-.628.194-.987 0-.618-.1-1.156-.298-1.616-.2-.46-.454-.828-.763-1.108-.31-.28-.663-.49-1.062-.63-.397-.14-.795-.21-1.195-.21h-2.69zm18.99 24.977c-.062.16-.3.39-.72.688-.418.3-.916.62-1.494.958-.58.34-1.197.68-1.854 1.02-.66.338-1.277.633-1.854.883-.578.25-1.077.444-1.496.584-.417.14-.658.18-.717.12-.898-.86-1.706-1.707-2.423-2.546-.718-.838-1.435-1.76-2.154-2.77-.717-1.007-1.485-2.155-2.302-3.443-.817-1.288-1.773-2.81-2.87-4.568-.06-.06-.11-.09-.15-.09-.1 0-.213.02-.342.06-.13.04-.205.06-.225.06-.02.42-.04 1.013-.06 1.78-.02.77-.035 1.61-.044 2.517-.012.91-.032 1.827-.06 2.755-.03.93-.067 1.777-.107 2.546-.04.77-.095 1.393-.163 1.872-.07.48-.155.72-.254.72-.14 0-.27-.01-.39-.032-.12-.02-.198-.03-.238-.03-1.695.12-3.335.23-4.92.33-1.584.1-3.225.15-4.918.15-.22 0-.52-.005-.897-.015-.38-.01-.753-.015-1.12-.015-.37 0-.69-.005-.96-.015l-.432-.015-1.914-.63-.178-.42c-.02 0-.05-.203-.09-.613-.04-.41-.085-.933-.134-1.572-.05-.638-.106-1.362-.165-2.17l-.18-2.44c-.06-.82-.115-1.61-.164-2.367-.05-.76-.095-1.408-.135-1.947-.08-1.08-.17-2.203-.268-3.37-.1-1.168-.15-2.29-.15-3.37 0-.08.01-.27.03-.568.02-.3.04-.63.06-.99.02-.358.04-.687.06-.986.02-.3.03-.49.03-.57 0-.06-.01-.195-.03-.404-.02-.21-.04-.435-.06-.674-.02-.24-.04-.464-.06-.674-.02-.21-.03-.345-.03-.405 0-.54.01-1.028.03-1.467.02-.44.045-.888.074-1.348.03-.46.06-.96.09-1.498.03-.54.045-1.188.045-1.947 0-.12-.004-.32-.014-.6-.01-.277-.015-.567-.015-.866 0-.3-.004-.59-.014-.87-.01-.278-.014-.478-.014-.598-.04-.04-.08-.094-.12-.165-.04-.07-.06-.133-.06-.194 0-.34.15-.608.448-.808.3-.2.658-.35 1.077-.45.42-.1.842-.164 1.27-.194.43-.03.763-.045 1.002-.045 4.784 0 8.93.08 12.44.24 3.508.158 6.503.413 8.985.762 2.48.35 4.51.8 6.084 1.348 1.574.55 2.805 1.228 3.692 2.036.887.81 1.495 1.743 1.824 2.8.33 1.058.493 2.267.493 3.624 0 1.358-.2 2.506-.6 3.445-.397.938-.87 1.706-1.42 2.305-.547.6-1.1 1.068-1.658 1.407-.558.34-.987.59-1.286.75.18.5.463 1.068.852 1.706.388.64.822 1.298 1.3 1.977.48.68.982 1.353 1.51 2.022.53.67 1.018 1.297 1.466 1.886.45.59.827 1.113 1.136 1.573.31.46.504.81.583 1.05.378.158.458.39.24.688-.22.3-.55.61-.987.928-.52.36-1.157.748-1.913 1.168zM208.286 33.194c0 .02-.04.26-.12.718-.08.46-.18 1.06-.3 1.797-.12.738-.263 1.582-.432 2.53-.17.948-.335 1.912-.494 2.89-.16.978-.32 1.937-.478 2.876-.16.937-.298 1.776-.42 2.515h2.692c.04-.04.1-.08.18-.12.08-.04.14-.06.18-.06h.12c.337 0 .637.035.896.105.258.07.528.136.808.195-.12-.738-.26-1.58-.42-2.53-.16-.948-.318-1.917-.477-2.905-.16-.99-.324-1.956-.494-2.905-.17-.95-.313-1.797-.432-2.546-.12-.748-.22-1.357-.3-1.827-.08-.468-.12-.714-.12-.733-.02-.04-.04-.1-.06-.18-.02-.06-.04-.14-.06-.24-.02-.1-.05-.22-.088-.36-.04.14-.07.26-.09.36-.02.1-.04.18-.06.24-.02.08-.03.14-.03.18m-7.266-8.505c.717 0 1.33-.01 1.838-.032.51-.02.962-.04 1.362-.06.398-.02.772-.044 1.12-.074.35-.03.738-.055 1.167-.074.428-.02.927-.042 1.494-.06.57-.02 1.263-.03 2.08-.03.138 0 .413.004.823.014.408.01.882.025 1.42.045.538.02 1.115.034 1.734.043.617.012 1.2.027 1.75.046.547.02 1.036.033 1.465.044.428.01.722.015.882.015.238 0 .453.04.642.12.19.078.404.118.643.118h.48c.137.04.257.125.357.255.1.13.148.245.148.344l4.337 16.203c.558 2.115 1.106 4.302 1.644 6.558.54 2.256 1.036 4.462 1.495 6.618.04.24.12.634.24 1.183.12.548.195 1.097.225 1.646.03.55-.015 1.033-.134 1.453-.12.418-.4.628-.837.628h-.702c-.348 0-.742-.005-1.18-.015l-1.362-.03-1.315-.03c-.41-.01-.752-.016-1.03-.016-.282 0-.43-.01-.45-.03h-3.38c0-.038-.02-.09-.06-.15-.04-.06-.18-.09-.418-.09-.04 0-.08.042-.12.12-.04.082-.09.12-.15.12h-.178c-.02 0-.175-.01-.464-.03-.288-.02-.638-.044-1.047-.074-.408-.03-.836-.06-1.284-.09-.45-.03-.843-.045-1.18-.045-.24-.44-.495-1.212-.764-2.32-.27-1.11-.544-2.4-.823-3.88-.42.08-.878.136-1.375.166-.5.03-1.016.044-1.555.044-.538 0-1.077-.004-1.615-.015-.537-.01-1.046-.015-1.525-.015-.3 1.42-.58 2.666-.837 3.744-.26 1.078-.508 1.837-.747 2.276-.12 0-.274.04-.463.12-.19.08-.304.12-.344.12h-.12c-.22 0-.384-.04-.493-.12-.11-.08-.214-.12-.314-.12-.897.02-1.694.05-2.392.09-.598.04-1.142.07-1.63.09-.488.02-.732.04-.732.06h-4.964c-.02 0-.164.005-.434.016-.27.01-.607.02-1.016.028-.41.012-.852.02-1.33.03l-1.377.03c-.437.01-.83.016-1.18.016h-.732c-.42 0-.688-.21-.808-.63-.12-.42-.16-.902-.12-1.452.04-.55.116-1.098.226-1.647.108-.55.183-.944.224-1.184.457-2.156.952-4.362 1.48-6.618.528-2.256 1.07-4.443 1.63-6.558l4.156-16.323c0-.1.06-.214.18-.344.12-.13.23-.214.328-.254h.48c.456 0 .856-.047 1.194-.136.34-.09.758-.135 1.256-.135.758 0 1.486.043 2.183.134.698.09 1.465.135 2.303.135M267.544 59.34c-.28 0-.563.04-.85.118-.29.08-.574.12-.854.12s-.504-.05-.672-.15c-.17-.1-.374-.15-.614-.15l-.51.06c-.238-.04-.377-.13-.416-.27-.04-.14-.06-.258-.06-.36l-3.44-16.98-3.408 16.98c-.26.102-.408.22-.45.36-.04.14-.058.23-.058.27l-.48-.06c-.12 0-.228.05-.327.15-.1.1-.22.15-.36.15-.617 0-1.17-.04-1.66-.12-.488-.08-1.05-.12-1.69-.12-.04.12-.198.2-.478.24-.28.04-.587.06-.926.06-.737 0-1.33-.015-1.78-.045-.446-.03-.845-.064-1.194-.105-.348-.04-.688-.075-1.016-.105-.33-.03-.754-.044-1.272-.044-.458 0-.913.04-1.36.118-.448.08-.922.12-1.42.12-.28 0-.564-.05-.852-.15-.29-.1-.573-.15-.854-.15l-.478.06c-.28-.04-.443-.13-.492-.27-.05-.14-.076-.258-.076-.36l-3.558-16.23c-.42-2.077-.847-4.208-1.286-6.393-.438-2.188-.847-4.31-1.225-6.365-.12-.14-.214-.334-.284-.584-.07-.25-.12-.524-.15-.824-.03-.3-.044-.604-.044-.913v-.885c0-.458.068-.838.208-1.138.138-.3.377-.45.717-.45h.688c.34 0 .723.007 1.15.016l1.346.03 1.3.03c.398.01.728.02.987.03.26.01.408.015.448.015h2.214c.218.02.367.07.446.15.04.04.06.07.06.09.1 0 .2-.04.3-.12.1-.08.24-.12.418-.12h.18c.02 0 .17.015.45.045.278.03.612.06 1 .09.39.03.802.055 1.24.075.44.02.827.03 1.167.03.18.34.36.867.54 1.587.178.718.358 1.562.538 2.53.18.97.374 2.042.582 3.22.21 1.178.434 2.395.673 3.653 0 .04.025.2.075.48.05.28.105.618.164 1.018.06.4.135.834.225 1.303.09.467.164.897.224 1.286.06.39.116.72.165.99.05.268.076.413.076.433 0 .058.01.128.03.21.02.08.04.168.06.268.02.1.05.21.09.33.04-.12.064-.23.075-.33.01-.1.025-.19.045-.27.02-.08.04-.15.06-.21 0-.02.024-.164.074-.433.05-.27.105-.6.164-.99.06-.388.136-.818.225-1.286.09-.47.164-.904.224-1.304s.115-.738.164-1.02c.05-.277.077-.438.077-.478.257-1.258.493-2.475.702-3.653.21-1.178.408-2.25.598-3.22.188-.968.373-1.812.552-2.53.18-.72.358-1.248.54-1.587h.956c.338 0 .707-.02 1.105-.06 0-.1.066-.175.195-.224.13-.05.275-.076.434-.076h2.362c.537 0 1.07.006 1.6.015.528.01.96.025 1.3.045.04 0 .08-.01.12-.03.04-.02.08-.03.12-.03.1 0 .194.01.284.03.09.02.134.05.134.09h3.2c.24.02.398.07.478.15.04.04.06.07.06.09.08 0 .174-.04.285-.12.107-.08.243-.12.402-.12h.18c.06 0 .244.04.553.12.31.08.553.12.733.12.18.3.36.773.54 1.422.177.65.358 1.418.538 2.307.178.888.373 1.866.582 2.934.21 1.07.434 2.182.674 3.34 0 .04.024.235.073.584.05.35.11.78.18 1.288.07.508.15 1.063.24 1.662.088.6.168 1.15.238 1.647l.255 1.798c-.02.08-.02.16 0 .24 0 .08.01.17.03.27.02.1.05.2.09.3.04-.1.063-.2.075-.3.01-.1.024-.19.044-.27.018-.08.038-.16.06-.24l.253-1.797c.07-.497.15-1.047.24-1.646.088-.6.168-1.154.238-1.662.07-.51.132-.938.18-1.288.05-.35.075-.543.075-.584.24-1.158.46-2.27.658-3.34.2-1.067.394-2.045.584-2.933.188-.89.374-1.657.552-2.307.18-.65.358-1.123.538-1.422.2 0 .428-.01.688-.03.258-.02.508-.05.747-.09.28-.04.568-.08.868-.12h.18c.04 0 .065.04.074.12.01.08.036.12.076.12.28 0 .438-.03.478-.09.04-.06.06-.11.06-.15h2.75c.518-.02.97-.035 1.36-.044.39-.01.823-.02 1.302-.03l1.39-.03c.448-.01.84-.016 1.18-.016h.72c.298 0 .517.155.656.464.14.31.21.684.21 1.123-.12.3-.214.604-.284.913-.07.31-.12.615-.15.915-.028.3-.05.568-.06.808-.01.24-.015.43-.015.57-.498 2.276-1.05 4.65-1.66 7.128-.607 2.475-1.22 4.862-1.838 7.157l-3.59 14.704c-.278.1-.443.22-.493.36-.048.14-.075.228-.075.27l-.417-.06c-.22 0-.424.048-.614.148-.188.1-.392.15-.61.15-.5 0-.973-.04-1.423-.12-.447-.08-.912-.12-1.39-.12-.06.06-.19.11-.388.15-.2.04-.44.07-.718.09-.28.02-.59.036-.928.045-.34.01-.668.015-.986.015-.758 0-1.346-.015-1.765-.045-.418-.03-.793-.064-1.122-.105-.327-.04-.656-.075-.985-.105-.33-.03-.773-.044-1.33-.044M328.473 42.328c0 .04.11.08.33.12.16.04.428.065.806.074.378.01.916.015 1.614.015.478 0 .877-.23 1.197-.688.32-.46.583-1.044.793-1.753.21-.71.37-1.503.48-2.38.107-.88.187-1.74.238-2.576.05-.838.08-1.612.09-2.32.01-.71.015-1.254.015-1.633 0-.06-.006-.274-.015-.644-.01-.37-.04-.813-.09-1.333-.05-.52-.13-1.068-.238-1.646-.11-.58-.27-1.113-.48-1.602-.21-.49-.477-.9-.806-1.23-.33-.33-.723-.493-1.182-.493-.34 0-.642.258-.912.78-.27.518-.498 1.2-.688 2.05-.19.848-.354 1.812-.493 2.89-.138 1.077-.25 2.185-.328 3.323-.22 2.656-.33 5.67-.33 9.045zm-21.05-22.252c0-.38.168-.738.507-1.078.34-.34.698-.51 1.077-.51 2.73 0 5.083.02 7.057.06 1.974.04 3.677.06 5.113.06 2.232 0 4.61-.03 7.132-.09 2.52-.06 5.287-.088 8.296-.088 1.117 0 2.308.074 3.573.224 1.266.15 2.526.424 3.783.824 1.256.4 2.46.938 3.617 1.617 1.156.678 2.173 1.538 3.05 2.575.877 1.04 1.58 2.286 2.108 3.744.53 1.457.792 3.165.792 5.12 0 3.215-.407 5.93-1.225 8.147-.818 2.217-1.974 4.004-3.468 5.362-1.496 1.358-3.3 2.335-5.413 2.934-2.112.6-4.466.9-7.057.9h-8.372c.02.717.034 1.297.045 1.736.01.44.01.868 0 1.288l-.03 1.377c-.01.5-.015 1.158-.015 1.977 0 .738-.074 1.318-.224 1.736-.15.42-.37.735-.657.944-.288.21-.643.34-1.062.39-.417.05-.896.074-1.434.074-1.415 0-2.656.01-3.723.03l-3.23.06c-1.085.02-2.273.04-3.558.06-1.286.02-2.866.03-4.74.03-.378 0-.677-.12-.896-.36-.22-.24-.385-.543-.494-.913-.11-.37-.18-.773-.21-1.213-.03-.44-.045-.858-.045-1.257 0-.958-.013-2.272-.044-3.94-.03-1.665-.064-3.518-.105-5.554-.04-2.036-.074-4.16-.102-6.377-.03-2.218-.046-4.343-.046-6.38V20.076zM374.306 45.412c0 .1.01.356.03.765l.075 1.48c.03.58.065 1.2.107 1.86.04.657.08 1.28.12 1.87.038.59.082 1.104.133 1.543.05.438.093.728.133.868l.69 2.336c.038.16.154.275.344.344.188.07.362.106.522.106.318 0 .607-.22.867-.66.258-.438.487-1.028.687-1.767.2-.738.37-1.587.51-2.545.138-.958.257-1.952.358-2.98.1-1.027.183-2.05.254-3.07.07-1.018.123-1.966.163-2.845.04-.88.064-1.642.075-2.29.01-.65.015-1.113.015-1.393v-.495c0-.41-.015-.948-.045-1.618-.03-.67-.08-1.397-.15-2.186-.07-.788-.17-1.528-.3-2.216-.13-.69-.297-1.268-.508-1.737-.208-.47-.463-.704-.762-.704-.378 0-.767.314-1.166.942-.4.63-.688 1.722-.868 3.28l-1.286 9.883v1.227zm-1.584 15.514c-.938 0-1.884-.095-2.84-.284-.958-.19-1.935-.445-2.932-.765h-.418c-.18 0-.334-.015-.464-.044-.13-.03-.29-.1-.478-.21-.19-.11-.434-.26-.733-.45-.3-.188-.718-.443-1.255-.763-1.316-.74-2.428-1.737-3.336-2.995-.906-1.258-1.643-2.61-2.21-4.058-.57-1.447-.984-2.92-1.243-4.417-.26-1.498-.388-2.865-.388-4.104 0-1.556.17-3.13.508-4.716.34-1.587.828-3.115 1.466-4.582.636-1.467 1.424-2.845 2.36-4.133.937-1.288 2.004-2.41 3.2-3.37 1.196-.957 2.512-1.71 3.947-2.26 1.436-.55 2.98-.824 4.635-.824.358 0 .723.007 1.09.016.37.01.735.045 1.093.105.06-.038.134-.06.224-.06h.223c1.615 0 3.04.022 4.276.06 1.235.042 2.357.13 3.364.27 1.006.14 1.938.346 2.795.614.856.27 1.704.635 2.54 1.094 1.616 1.078 3 2.2 4.157 3.368 1.156 1.17 2.113 2.447 2.87 3.834.758 1.388 1.316 2.905 1.676 4.552.36 1.648.537 3.47.537 5.466 0 1.917-.228 3.8-.687 5.645-.46 1.847-1.147 3.61-2.064 5.286-.06.118-.144.274-.254.463-.11.19-.22.37-.33.54-.11.17-.21.32-.298.45-.09.128-.146.193-.165.193l-.42.24c-.995 1.498-2.192 2.66-3.588 3.488-1.395.83-2.884 1.433-4.47 1.812-1.584.38-3.22.604-4.903.674-1.685.07-3.305.105-4.86.105-.458 0-.896-.04-1.315-.12-.418-.08-.857-.12-1.315-.12zM402.2 44.125c.078-2.416.138-4.762.178-7.038.04-2.276.13-4.323.27-6.14.14-1.815.358-3.334.658-4.552.3-1.217.767-1.996 1.405-2.335 1.575 0 2.916.01 4.022.03 1.107.02 2.123.04 3.05.06l2.692.06c.867.02 1.86.03 2.974.03l1.392.104c.39.03.71.125.97.284.26.16.444.42.555.78.108.358.154.888.134 1.587 0 .06-.016.214-.046.464s-.06.518-.09.808c-.03.29-.07.553-.12.793-.05.24-.085.39-.103.45 0 .1.01.29.03.57l.06.883c.02.31.04.594.06.853.02.26.03.42.03.48.018.34.03.813.03 1.422 0 .61.01 1.238.03 1.886.018.65.05 1.25.09 1.798.04.55.108.922.208 1.123 0 .598-.02 1.252-.06 1.962-.04.708-.064 1.426-.075 2.155-.01.73.01 1.45.06 2.157.05.708.155 1.36.314 1.96.32.12.564.19.733.21.17.02.393.03.672.03 1.316 0 2.666-.01 4.053-.03 1.386-.02 2.736-.15 4.05-.39.24.06.475.225.704.495.228.27.343.535.343.794l-.45 10.48c-.02.2-.19.375-.507.524-.318.15-.728.275-1.226.375-.5.098-1.047.19-1.645.268-.597.08-1.176.14-1.733.18-.56.04-1.068.07-1.526.09-.46.02-.798.03-1.017.03-.62 0-1.226.03-1.824.09-.6.06-1.177.09-1.735.09-.058 0-.168-.006-.33-.016-.158-.01-.322-.025-.49-.045l-.495-.06c-.16-.02-.27-.04-.328-.06-.2 0-.52-.015-.958-.045-.44-.03-.938-.06-1.495-.09-.56-.03-1.137-.06-1.735-.088-.598-.03-1.156-.06-1.675-.09l-1.345-.077c-.38-.02-.608-.028-.688-.028-.956-.04-1.9-.02-2.826.058-.927.08-1.888.12-2.885.12h-1.195c-.38 0-.748.02-1.106.06l-.27-.24c.02-.02.03-.25.03-.688V55.61c0-.51.01-.843.03-1.003.02-.58.024-1.248.014-2.007-.01-.758-.025-1.507-.044-2.246-.02-.738-.04-1.432-.06-2.08-.02-.65-.03-1.155-.03-1.513l.27-2.635zM435.264 44.125c.08-2.416.14-4.762.18-7.038.04-2.276.13-4.323.27-6.14.138-1.815.357-3.334.657-4.552.3-1.217.768-1.996 1.406-2.335 1.574 0 2.915.01 4.02.03 1.108.02 2.124.04 3.052.06l2.69.06c.868.02 1.86.03 2.975.03l1.392.104c.39.03.71.125.97.284.26.16.444.42.555.78.11.358.154.888.134 1.587 0 .06-.015.214-.045.464s-.06.518-.09.808c-.03.29-.07.553-.12.793-.05.24-.086.39-.104.45 0 .1.01.29.03.57.02.28.038.574.06.883.018.31.04.594.06.853.018.26.028.42.028.48.02.34.03.813.03 1.422 0 .61.01 1.238.03 1.886.02.65.05 1.25.09 1.798.04.55.11.922.21 1.123 0 .598-.02 1.252-.06 1.962-.04.708-.065 1.426-.076 2.155-.01.73.01 1.45.06 2.157.05.708.155 1.36.315 1.96.32.12.564.19.732.21.17.02.393.03.673.03 1.315 0 2.665-.01 4.052-.03 1.386-.02 2.736-.15 4.052-.39.24.06.473.225.702.495.23.27.344.535.344.794l-.45 10.48c-.02.2-.19.375-.507.524-.317.15-.727.275-1.225.375-.498.098-1.046.19-1.645.268-.597.08-1.176.14-1.733.18-.56.04-1.068.07-1.525.09-.46.02-.8.03-1.018.03-.617 0-1.225.03-1.823.09-.598.06-1.176.09-1.734.09-.06 0-.17-.006-.33-.016-.158-.01-.323-.025-.49-.045l-.496-.06c-.16-.02-.268-.04-.328-.06-.2 0-.52-.015-.958-.045-.438-.03-.937-.06-1.494-.09-.56-.03-1.137-.06-1.734-.088-.6-.03-1.157-.06-1.675-.09l-1.345-.077c-.38-.02-.608-.028-.688-.028-.956-.04-1.9-.02-2.826.058-.925.08-1.886.12-2.884.12h-1.196c-.38 0-.748.02-1.106.06l-.27-.24c.02-.02.03-.25.03-.688V55.61c0-.51.01-.843.03-1.003.02-.58.026-1.248.015-2.007-.01-.758-.026-1.507-.045-2.246-.02-.738-.04-1.432-.06-2.08-.02-.65-.03-1.155-.03-1.513l.27-2.635z"/></g><path d="M40.994 35.13c-.628.56-1.158 1.197-1.662 1.85-.212.302-.412.608-.61.915.116 7.51.118 13.844-.05 16.77-6.23.532-26.33.56-32.237.043-.487-5.934-.45-26.18.06-32.41 2.81-.205 8.897-.206 16.163-.07 1.094-2.012 2.354-3.932 3.68-5.818-22.94-.614-24.025.41-24.887 1.878-.5.764-1.14 2.46-1.207 20.25-.07 18.956.69 19.753 1.57 20.678.92.964 1.65 1.732 18.868 1.732.612 0 1.246 0 1.9-.003 18.822-.056 19.693-.804 20.538-1.526v-.003c1.088-.932 1.974-1.734 1.366-27.38-1.094 1.1-2.317 2.042-3.49 3.092" fill="#CA2F2C"/><g transform="translate(8.247 .126)"><mask id="b" fill="#fff"><use xlink:href="#a"/></mask><path d="M38.923.18s3.684 5.09 10.355 6.553c0 0-22.87 17.942-29.667 42.63 0 0-3.43-.19-6.67 1.59 0 0-1.97-10.88-12.642-19.597 0 0 5.273-.89 9.276-3.945 0 0 5.526 5.918 6.352 12.217 0 0 6.67-20.296 22.997-39.448" fill="#FEFEFE" mask="url(#b)"/></g></g></svg>